<?xml version="1.0" encoding="UTF-8"?>
<svg width="32" height="32" viewBox="0 0 32 32" fill="none" xmlns="http://www.w3.org/2000/svg">
    <rect width="32" height="32" rx="16" fill="#e17c3a"/>
    <path d="M24 12.5c0 .8-.3 1.5-.9 2.1-.6.6-1.3.9-2.1.9-.5 0-1-.1-1.4-.4l-7.1 7.1c.3.4.4.9.4 1.4 0 .8-.3 1.5-.9 2.1-.6.6-1.3.9-2.1.9s-1.5-.3-2.1-.9c-.6-.6-.9-1.3-.9-2.1s.3-1.5.9-2.1c.6-.6 1.3-.9 2.1-.9.5 0 1 .1 1.4.4l7.1-7.1c-.3-.4-.4-.9-.4-1.4 0-.8.3-1.5.9-2.1.6-.6 1.3-.9 2.1-.9s1.5.3 2.1.9c.6.6.9 1.3.9 2.1z" fill="#fffbe6"/>
</svg> 